<mxfile host="app.diagrams.net" agent="Mozilla/5.0 (X11; Linux x86_64) AppleWebKit/537.36 (KHTML, like Gecko) Chrome/138.0.0.0 Safari/537.36" version="28.0.3">
  <diagram name="Page-1" id="j9LHTjVvC8cvnr3t2Hr-">
    <mxGraphModel dx="1826" dy="787" grid="1" gridSize="10" guides="1" tooltips="1" connect="1" arrows="1" fold="1" page="0" pageScale="1" pageWidth="850" pageHeight="1100" math="0" shadow="0">
      <root>
        <mxCell id="0" />
        <mxCell id="1" parent="0" />
        <mxCell id="Qr_JL-rTWK1h9YEE-_Me-2" value="Sources" style="swimlane;whiteSpace=wrap;html=1;fontSize=18;startSize=40;dashed=1;strokeWidth=1;fontStyle=0;swimlaneFillColor=none;fillColor=none;" vertex="1" parent="1">
          <mxGeometry x="-40" y="200" width="180" height="440" as="geometry" />
        </mxCell>
        <mxCell id="Qr_JL-rTWK1h9YEE-_Me-3" value="&lt;b&gt;ERP&lt;/b&gt;" style="sketch=0;outlineConnect=0;fontColor=#232F3E;gradientColor=none;fillColor=#232F3D;strokeColor=none;dashed=0;verticalLabelPosition=bottom;verticalAlign=top;align=center;html=1;fontSize=12;fontStyle=0;aspect=fixed;pointerEvents=1;shape=mxgraph.aws4.document;" vertex="1" parent="Qr_JL-rTWK1h9YEE-_Me-2">
          <mxGeometry x="61.5" y="281" width="57" height="78" as="geometry" />
        </mxCell>
        <mxCell id="Qr_JL-rTWK1h9YEE-_Me-4" value="&lt;b&gt;CRM&lt;/b&gt;" style="sketch=0;outlineConnect=0;fontColor=#232F3E;gradientColor=none;fillColor=#232F3D;strokeColor=none;dashed=0;verticalLabelPosition=bottom;verticalAlign=top;align=center;html=1;fontSize=12;fontStyle=0;aspect=fixed;pointerEvents=1;shape=mxgraph.aws4.document;" vertex="1" parent="Qr_JL-rTWK1h9YEE-_Me-2">
          <mxGeometry x="61.5" y="111" width="57" height="78" as="geometry" />
        </mxCell>
        <mxCell id="Qr_JL-rTWK1h9YEE-_Me-5" value="" style="rounded=1;whiteSpace=wrap;html=1;arcSize=4;fillColor=none;strokeColor=#d79b00;strokeWidth=2;" vertex="1" parent="1">
          <mxGeometry x="220" y="260" width="180" height="380" as="geometry" />
        </mxCell>
        <mxCell id="Qr_JL-rTWK1h9YEE-_Me-6" value="&lt;b&gt;BRONZE&lt;/b&gt;" style="rounded=1;whiteSpace=wrap;html=1;arcSize=8;fillColor=#ffe6cc;strokeColor=#d79b00;strokeWidth=2;fontSize=16;" vertex="1" parent="1">
          <mxGeometry x="220" y="200" width="180" height="40" as="geometry" />
        </mxCell>
        <mxCell id="Qr_JL-rTWK1h9YEE-_Me-8" value="crm_cust_info" style="rounded=1;whiteSpace=wrap;html=1;arcSize=33;fillColor=#ffe6cc;strokeColor=#d79b00;strokeWidth=2;" vertex="1" parent="1">
          <mxGeometry x="240" y="280" width="140" height="40" as="geometry" />
        </mxCell>
        <mxCell id="Qr_JL-rTWK1h9YEE-_Me-9" value="crm_prd_info" style="rounded=1;whiteSpace=wrap;html=1;arcSize=33;fillColor=#ffe6cc;strokeColor=#d79b00;strokeWidth=2;" vertex="1" parent="1">
          <mxGeometry x="240" y="330" width="140" height="40" as="geometry" />
        </mxCell>
        <mxCell id="Qr_JL-rTWK1h9YEE-_Me-10" value="crm_sales_details" style="rounded=1;whiteSpace=wrap;html=1;arcSize=33;fillColor=#ffe6cc;strokeColor=#d79b00;strokeWidth=2;" vertex="1" parent="1">
          <mxGeometry x="240" y="380" width="140" height="40" as="geometry" />
        </mxCell>
        <mxCell id="Qr_JL-rTWK1h9YEE-_Me-11" value="erp_cust_az12" style="rounded=1;whiteSpace=wrap;html=1;arcSize=33;fillColor=#ffe6cc;strokeColor=#d79b00;strokeWidth=2;" vertex="1" parent="1">
          <mxGeometry x="240" y="450" width="140" height="40" as="geometry" />
        </mxCell>
        <mxCell id="Qr_JL-rTWK1h9YEE-_Me-12" value="erp_loc_a101" style="rounded=1;whiteSpace=wrap;html=1;arcSize=33;fillColor=#ffe6cc;strokeColor=#d79b00;strokeWidth=2;" vertex="1" parent="1">
          <mxGeometry x="240" y="500" width="140" height="40" as="geometry" />
        </mxCell>
        <mxCell id="Qr_JL-rTWK1h9YEE-_Me-13" value="erp_px_cat_g1v2" style="rounded=1;whiteSpace=wrap;html=1;arcSize=33;fillColor=#ffe6cc;strokeColor=#d79b00;strokeWidth=2;" vertex="1" parent="1">
          <mxGeometry x="240" y="550" width="140" height="40" as="geometry" />
        </mxCell>
        <mxCell id="Qr_JL-rTWK1h9YEE-_Me-14" style="edgeStyle=orthogonalEdgeStyle;rounded=0;orthogonalLoop=1;jettySize=auto;html=1;" edge="1" parent="1" source="Qr_JL-rTWK1h9YEE-_Me-4" target="Qr_JL-rTWK1h9YEE-_Me-8">
          <mxGeometry relative="1" as="geometry" />
        </mxCell>
        <mxCell id="Qr_JL-rTWK1h9YEE-_Me-15" style="edgeStyle=orthogonalEdgeStyle;rounded=0;orthogonalLoop=1;jettySize=auto;html=1;" edge="1" parent="1" source="Qr_JL-rTWK1h9YEE-_Me-4" target="Qr_JL-rTWK1h9YEE-_Me-9">
          <mxGeometry relative="1" as="geometry" />
        </mxCell>
        <mxCell id="Qr_JL-rTWK1h9YEE-_Me-16" style="edgeStyle=orthogonalEdgeStyle;rounded=0;orthogonalLoop=1;jettySize=auto;html=1;" edge="1" parent="1" source="Qr_JL-rTWK1h9YEE-_Me-4" target="Qr_JL-rTWK1h9YEE-_Me-10">
          <mxGeometry relative="1" as="geometry" />
        </mxCell>
        <mxCell id="Qr_JL-rTWK1h9YEE-_Me-17" style="edgeStyle=orthogonalEdgeStyle;rounded=0;orthogonalLoop=1;jettySize=auto;html=1;" edge="1" parent="1" source="Qr_JL-rTWK1h9YEE-_Me-3" target="Qr_JL-rTWK1h9YEE-_Me-11">
          <mxGeometry relative="1" as="geometry" />
        </mxCell>
        <mxCell id="Qr_JL-rTWK1h9YEE-_Me-18" style="edgeStyle=orthogonalEdgeStyle;rounded=0;orthogonalLoop=1;jettySize=auto;html=1;" edge="1" parent="1" source="Qr_JL-rTWK1h9YEE-_Me-3" target="Qr_JL-rTWK1h9YEE-_Me-12">
          <mxGeometry relative="1" as="geometry" />
        </mxCell>
        <mxCell id="Qr_JL-rTWK1h9YEE-_Me-20" style="edgeStyle=orthogonalEdgeStyle;rounded=0;orthogonalLoop=1;jettySize=auto;html=1;" edge="1" parent="1" source="Qr_JL-rTWK1h9YEE-_Me-3" target="Qr_JL-rTWK1h9YEE-_Me-13">
          <mxGeometry relative="1" as="geometry" />
        </mxCell>
        <mxCell id="Qr_JL-rTWK1h9YEE-_Me-29" value="&lt;b&gt;Data Flow Diagram&lt;/b&gt;" style="text;html=1;align=center;verticalAlign=middle;whiteSpace=wrap;rounded=0;fontSize=24;" vertex="1" parent="1">
          <mxGeometry x="220" y="80" width="290" height="40" as="geometry" />
        </mxCell>
      </root>
    </mxGraphModel>
  </diagram>
</mxfile>
